<svg width="800" height="600" viewBox="0 0 800 600" fill="none" xmlns="http://www.w3.org/2000/svg">
  <defs>
    <linearGradient id="g1" x1="0" y1="0" x2="1" y2="1">
      <stop offset="0%" stop-color="#ef4444" stop-opacity="0.35"/>
      <stop offset="100%" stop-color="#f59e0b" stop-opacity="0.25"/>
    </linearGradient>
    <linearGradient id="g2" x1="0" y1="0" x2="1" y2="1">
      <stop offset="0%" stop-color="#94a3b8" stop-opacity="0.15"/>
      <stop offset="100%" stop-color="#0ea5e9" stop-opacity="0.25"/>
    </linearGradient>
    <filter id="blur" x="-50%" y="-50%" width="200%" height="200%">
      <feGaussianBlur stdDeviation="40"/>
    </filter>
  </defs>
  <rect width="800" height="600" rx="24" fill="url(#g2)"/>
  <circle cx="140" cy="120" r="120" fill="url(#g1)" filter="url(#blur)"/>
  <circle cx="700" cy="520" r="160" fill="url(#g1)" filter="url(#blur)"/>
  <g transform="translate(200,120)">
    <rect x="0" y="0" width="400" height="300" rx="18" fill="#0f172a" stroke="rgba(148,163,184,0.25)"/>
    <rect x="24" y="24" width="112" height="12" rx="6" fill="#f59e0b"/>
    <rect x="24" y="54" width="240" height="20" rx="10" fill="#e2e8f0"/>
    <rect x="24" y="84" width="280" height="12" rx="6" fill="#94a3b8"/>
    <rect x="24" y="108" width="260" height="12" rx="6" fill="#94a3b8"/>
    <rect x="24" y="148" width="150" height="40" rx="10" fill="#ef4444"/>
    <rect x="184" y="148" width="150" height="40" rx="10" fill="#111827" stroke="rgba(148,163,184,0.25)"/>
    <rect x="24" y="208" width="352" height="56" rx="12" fill="#111827" stroke="rgba(148,163,184,0.25)"/>
  </g>
</svg>


